# xmcd CD database file
#
# Track frame offsets:
#	150
#	32697
#	52928
#	70512
#	103877
#
# Disc length: 1627 seconds
#
# Revision: 0
# Processed by: cddbd v1.5.2PL0 Copyright (c) Steve Scherf et al.
# Submitted via: CDex 1.70beta3
#
DISCID=38065905
DTITLE=Milt Jackson - The Cool Jazz Collection 54
DYEAR=2010
DGENRE=Jazz
TTITLE0=Changes
TTITLE1=Little Girl Vlue
TTITLE2=Invitation
TTITLE3=Reunion Blues
TTITLE4=The Nearness of You
EXTD=YEAR: 2010
EXTT0=
EXTT1=
EXTT2=
EXTT3=
EXTT4=
PLAYORDER=
